<svg xmlns="http://www.w3.org/2000/svg" xmlns:xlink="http://www.w3.org/1999/xlink" viewBox="0,0,256,256" width="32px" height="32px"><g fill="#b4c6ee" fill-rule="nonzero" stroke="none" stroke-width="1" stroke-linecap="butt" stroke-linejoin="miter" stroke-miterlimit="10" stroke-dasharray="" stroke-dashoffset="0" font-family="none" font-weight="none" font-size="none" text-anchor="none" style="mix-blend-mode: normal"><g transform="scale(8,8)"><path d="M29.765,16.301c-0.325,-1.213 -0.966,-2.285 -1.845,-3.14c0.625,-1.864 0.431,-3.924 -0.568,-5.638c-1.614,-2.776 -4.89,-4.007 -7.866,-3.188c-1.312,-1.47 -3.206,-2.335 -5.201,-2.335c-1.241,0 -2.458,0.329 -3.52,0.95c-0.477,0.279 -0.637,0.892 -0.358,1.368c0.279,0.477 0.893,0.636 1.368,0.358c0.756,-0.441 1.624,-0.676 2.51,-0.676c1.199,0 2.347,0.435 3.238,1.198l-5.255,3.011c-0.311,0.178 -0.502,0.508 -0.503,0.865l-0.02,7.053l-2.403,-1.386v-5.842c0,-0.811 0.193,-1.583 0.574,-2.294c0.262,-0.487 0.078,-1.093 -0.408,-1.354c-0.488,-0.262 -1.095,-0.078 -1.355,0.409c-0.256,0.477 -0.451,0.986 -0.587,1.511c-1.934,0.393 -3.637,1.59 -4.633,3.301c-0.927,1.593 -1.175,3.449 -0.698,5.228c0.326,1.214 0.968,2.287 1.849,3.143c-0.634,1.878 -0.443,3.904 0.565,5.635c1.284,2.209 3.622,3.445 6.023,3.445c0.618,0 1.239,-0.087 1.848,-0.256c1.31,1.468 3.204,2.333 5.195,2.333c3.227,0 5.938,-2.201 6.714,-5.168c1.937,-0.391 3.639,-1.586 4.638,-3.303c0.927,-1.593 1.175,-3.449 0.698,-5.228zM18.865,6.735c2.364,-1.353 5.395,-0.55 6.759,1.795c0.599,1.029 0.79,2.234 0.567,3.381l-5.27,-3.02c-0.308,-0.178 -0.684,-0.176 -0.991,-0.002l-6.175,3.514l0.008,-2.744zM13.769,14.732l2.235,-1.28l2.234,1.28v2.549l-2.234,1.28l-2.235,-1.28zM4.661,11.477c0.6,-1.031 1.562,-1.8 2.68,-2.183v6.025c0,0.357 0.19,0.688 0.501,0.866l6.136,3.539l-2.4,1.366l-5.108,-2.925c-1.146,-0.657 -1.964,-1.717 -2.303,-2.983c-0.338,-1.261 -0.162,-2.576 0.494,-3.705zM6.376,23.471c-0.604,-1.04 -0.793,-2.23 -0.565,-3.379l5.269,3.018c0.154,0.088 0.325,0.132 0.497,0.132c0.171,0 0.341,-0.044 0.494,-0.131l6.175,-3.514l-0.008,2.746l-5.103,2.924c-2.364,1.352 -5.395,0.549 -6.759,-1.796zM17.715,28c-1.197,0 -2.346,-0.437 -3.236,-1.2l5.254,-3.01c0.311,-0.177 0.502,-0.507 0.503,-0.864l0.02,-7.053l2.403,1.386v5.844c0,2.7 -2.218,4.897 -4.944,4.897zM27.339,20.524c-0.602,1.033 -1.562,1.803 -2.68,2.184v-6.028c0,-0.357 -0.19,-0.688 -0.5,-0.866l-6.137,-3.539l2.4,-1.366l5.108,2.928c1.146,0.655 1.963,1.715 2.303,2.981c0.338,1.261 0.162,2.577 -0.494,3.706z"></path></g></g></svg>